<svg width="28" height="18" viewBox="0 0 24 16" xmlns="http://www.w3.org/2000/svg">
  <g fill="none" fill-rule="evenodd">
    <rect fill="#016fd0" height="16" rx="2" width="24" />
    <path
      d="M13.8 13.4V7.7h10.1v1.6l-1.2 1.2 1.2 1.3v1.6H22l-1-1.1-1 1.1z"
      fill="#fffffe"
    />
    <path
      d="M14.4 12.8V8.3h3.8v1h-2.5v.7h2.5v1h-2.5v.7h2.5v1zM18.2 12.8l2-2.3-2-2.2h1.6l1.3 1.4 1.3-1.4h1.5l-2 2.2 2 2.2h-1.6l-1.2-1.4-1.3 1.5z"
      fill="#016fd0"
    />
    <path
      d="M14.2 2.6h2.5l.8 2v-2h3l.6 1.5.5-1.5H24v5.7H11.7z"
      fill="#fffffe"
    />
    <g fill="#016fd0">
      <path d="m14.7 3.3-2 4.4h1.4l.4-.9h2l.3.9h1.4l-2-4.4zm.2 2.5.6-1.4.6 1.4zM18.2 7.7V3.3h2L21 6l1-2.7h1.8v4.4h-1.2v-3l-1 3h-1.2l-1-3v3z" />
    </g>
  </g>
</svg>