<svg xmlns="http://www.w3.org/2000/svg" xmlns:xlink="http://www.w3.org/1999/xlink" viewBox="0 0 32 32"><defs><path id="a" d="M0 0h32v32H0z"/></defs><g fill="none" fill-rule="evenodd"><mask id="b" fill="#fff"><use xlink:href="#a"/></mask><use fill="#3394D7" xlink:href="#a"/><g fill-rule="nonzero" mask="url(#b)"><path fill="#238647" d="M0 0h2.909v32H0z"/><path fill="#2F9B47" d="M1.455 0h2.909v32H1.455z"/><path fill="#62B64F" d="M4.364 0h2.909v32H4.364z"/><path fill="#89CC53" d="M7.273 0h2.909v32H7.273z"/><path fill="#3DB8AD" d="M10.182 0h2.909v32h-2.909z"/><path fill="#3394D7" d="M13.091 0H16v32h-2.909z"/><path fill="#2872BC" d="M16 0h2.909v32H16z"/><path fill="#1D5C84" d="M18.909 0h2.909v32h-2.909z"/><path fill="#993233" d="M21.818 0h2.909v32h-2.909z"/><path fill="#E13030" d="M24.727 0h2.909v32h-2.909z"/><path fill="#F28825" d="M27.636 0h2.909v32h-2.909z"/><path fill="#F5C836" d="M30.545 0h2.91v32h-2.91z"/><path fill="#FFF" d="M4.36 18.9H2.91v-8.71h1.6v3.52a2.97 2.97 0 1 1-.1 4.69l-.05.52zm3.71-2.83c0-1.06-.84-1.93-1.86-1.93s-1.86.87-1.86 1.93.84 1.94 1.86 1.94a1.9 1.9 0 0 0 1.86-1.94zm6.27-2.98h1.18v3.29a2.68 2.68 0 0 1-5.35 0v-3.29h1.19v3.27c0 .9.67 1.63 1.48 1.63.83 0 1.5-.72 1.5-1.63V13.1zm6.45 5.82h1.17v-3.13a2.68 2.68 0 0 0-5.35 0v3.13h1.2v-3.13c0-.9.66-1.64 1.48-1.64.83 0 1.5.73 1.5 1.64v3.13zm7-5.66h1.32v8.57h-1.46v-3.36a2.97 2.97 0 1 1 .09-4.69l.06-.52zm-3.7 2.82a1.9 1.9 0 0 0 1.86 1.94 1.9 1.9 0 0 0 1.85-1.94 1.9 1.9 0 0 0-1.85-1.93 1.9 1.9 0 0 0-1.86 1.93z"/></g></g></svg>