<?xml version="1.0" standalone="no"?>
<!DOCTYPE svg PUBLIC "-//W3C//DTD SVG 20010904//EN"
 "http://www.w3.org/TR/2001/REC-SVG-20010904/DTD/svg10.dtd">
<svg version="1.0" xmlns="http://www.w3.org/2000/svg"
 width="400.000000pt" height="548.000000pt" viewBox="-30 0 160.000000 548.000000"
 preserveAspectRatio="xMidYMid meet">

<g transform="translate(0.000000,548.000000) scale(0.100000,-0.100000)"
fill="#000000" stroke="none">
<path d="M0 5280 l0 -200 1235 0 1235 0 0 200 0 200 -1235 0 -1235 0 0 -200z"/>
<path d="M30 2755 l0 -1535 221 0 220 0 -3 1250 c-2 742 1 1241 6 1228 51
-131 222 -436 769 -1375 l642 -1103 283 0 282 0 0 1535 0 1535 -221 0 -220 0
3 -1250 c3 -1088 1 -1246 -11 -1218 -70 162 -215 419 -768 1368 l-639 1095
-282 3 -282 2 0 -1535z"/>
<path d="M0 225 l0 -195 1235 0 1235 0 0 195 0 195 -1235 0 -1235 0 0 -195z"/>
</g>
</svg>
