<svg xmlns="http://www.w3.org/2000/svg" width="32" height="32" viewBox="0 0 32 32">
  <defs>
    <linearGradient id="brandicon-rabobank-a" x1="0%" y1="0%" y2="0%">
      <stop offset="0%" stop-color="#000095"/>
      <stop offset="100%" stop-color="#003"/>
    </linearGradient>
    <linearGradient id="brandicon-rabobank-b" x1="15.668%" x2="88.69%" y1="11.456%" y2="93.134%">
      <stop offset="0%" stop-color="#FFCA32"/>
      <stop offset="16.138%" stop-color="#FFA720"/>
      <stop offset="47.28%" stop-color="#FB6200"/>
      <stop offset="61.572%" stop-color="#E34A00"/>
      <stop offset="79.356%" stop-color="#D63D00"/>
      <stop offset="100%" stop-color="#C30"/>
    </linearGradient>
    <linearGradient id="brandicon-rabobank-c" x1="50%" x2="91.754%" y1="0%" y2="91.44%">
      <stop offset="0%" stop-color="#F9C19B"/>
      <stop offset="100%" stop-color="#C2BDD7"/>
    </linearGradient>
    <linearGradient id="brandicon-rabobank-d" x1="26.496%" x2="91.199%" y1="1.818%" y2="86.59%">
      <stop offset="0%" stop-color="#040492"/>
      <stop offset="100%" stop-color="#221E3A"/>
    </linearGradient>
  </defs>
  <g fill="none" fill-rule="evenodd">
    <rect width="32" height="32" fill="#EBF1F7"/>
    <g transform="translate(7.273 3.91)">
      <path fill="url(#brandicon-rabobank-a)" d="M0.0581818182,18.1607273 L0.101818182,18.8734545 C0.247272727,21.5207273 3.28727273,24.0661818 8.58181818,24.0661818 C13.8909091,24.0661818 16.8872727,21.4916364 17.0763636,18.8443636 L17.12,18.1461818 L0.0581818182,18.1607273 Z"/>
      <path fill="url(#brandicon-rabobank-b)" d="M0.407272727,16.4007273 C-1.12,19.528 2.26909091,23.0625455 8.58181818,23.0625455 C14.9090909,23.0625455 18.2981818,19.528 16.7709091,16.4007273 C15.6654545,14.1461818 12.1163636,12.6916364 8.59636364,12.6916364 C5.07636364,12.6916364 1.51272727,14.1461818 0.407272727,16.4007273 Z"/>
      <path fill="#FFF" fill-rule="nonzero" d="M8.44654545,21.3389091 L8.58618182,21.24 L8.72290909,21.3389091 L8.73018182,22.7294545 L8.58472727,22.8458182 L8.43636364,22.7294545 L8.44654545,21.3389091 Z M2.4,16.4007273 C3.06909091,14.6116364 5.78909091,13.4189091 8.59636364,13.4189091 C11.4036364,13.4189091 14.1236364,14.5970909 14.7781818,16.3861818 C15.6218182,18.6552727 12.9454545,20.9825455 8.58181818,20.9825455 C4.21818182,20.9825455 1.55636364,18.6552727 2.4,16.3861818 L2.4,16.4007273 Z M13.8618182,21.56 L13.8443636,21.704 L13.6450909,21.6676364 L12.5585455,20.5607273 L12.5861818,20.4327273 L12.7694545,20.4632727 L13.8618182,21.56 Z M16.5221818,18.9825455 L16.6123636,19.0945455 L16.4581818,19.128 L14.944,18.616 L14.8698182,18.5083636 L15.0167273,18.4778182 L16.5221818,18.9825455 Z M16.4247273,16.3338182 L16.5570909,16.3949091 L16.4829091,16.4574545 L15.1490909,16.4574545 L15.0225455,16.3949091 L15.0996364,16.3338182 L16.4247273,16.3338182 Z M14.512,14.3410909 L14.6443636,14.3585455 L14.6385455,14.424 L13.7294545,14.7309091 L13.5970909,14.7105455 L13.6058182,14.6436364 L14.512,14.3410909 Z M5.34109091,13.2138182 L5.38618182,13.1585455 L5.49963636,13.1730909 L5.94763636,13.624 L5.90254545,13.6807273 L5.78618182,13.6661818 L5.34109091,13.2138182 Z M2.54545455,14.424 L2.53963636,14.36 L2.672,14.3410909 L3.57818182,14.6450909 L3.58690909,14.712 L3.45454545,14.7309091 L2.54545455,14.424 Z M0.696727273,16.456 L0.622545455,16.3949091 L0.756363636,16.3323636 L2.08,16.3323636 L2.15709091,16.3949091 L2.03054545,16.456 L0.696727273,16.456 Z M0.717090909,19.1265455 L0.562909091,19.096 L0.653090909,18.9810909 L2.15854545,18.4778182 L2.30690909,18.5083636 L2.23272727,18.6145455 L0.717090909,19.1265455 Z M3.52290909,21.6676364 L3.32509091,21.7054545 L3.30618182,21.5614545 L4.40145455,20.4647273 L4.58618182,20.4327273 L4.61236364,20.5607273 L3.52290909,21.6676364 Z"/>
      <path fill="#3E373F" fill-opacity=".55" d="M12,14.0589091 C11.8545455,14.0734545 11.8109091,14.1607273 11.68,14.1752727 C11.5345455,14.2043636 11.4181818,14.1607273 11.4181818,14.1607273 C11.2290909,14.1316364 11.1854545,14.0734545 10.9818182,14.1607273 C10.9236364,14.2916364 10.6909091,14.3643636 10.7490909,14.4952727 C10.7927273,14.568 10.9527273,14.5389091 10.9963636,14.5389091 C11.0545455,14.5389091 11.1272727,14.4807273 11.1854545,14.4952727 C11.3955857,14.5139163 11.5966959,14.5893327 11.7672727,14.7134545 C12.0581818,14.9607273 12.4072727,15.3534545 12.5963636,15.6589091 L12.64,15.7170909 L12.7127273,15.8625455 L12.7418182,15.9061818 C12.8290909,16.0661818 12.9454545,16.1970909 13.0036364,16.4298182 C12.4218182,16.4298182 11.84,16.1825455 11.84,16.1825455 L11.7527273,16.1389091 C11.7527273,16.1389091 11.3890909,15.9934545 10.8509091,15.9934545 L9.74545455,15.9934545 C9.54181818,15.9498182 9.38181818,15.7898182 9.38181818,15.7898182 L9.09090909,15.528 C8.65454545,15.3098182 7.92727273,16.2989091 7.92727273,16.2989091 C7.92727273,16.2989091 7.70909091,16.4007273 7.73818182,16.4734545 C7.78181818,16.5461818 8.21818182,16.5898182 8.27636364,16.5752727 L8.71272727,16.4298182 C8.91636364,16.2407273 9.65818182,16.4589091 9.65818182,16.4589091 C10.4858864,16.6872798 11.3201939,16.8910061 12.16,17.0698182 C12.4363636,17.1716364 13.3236364,17.4916364 13.6581818,17.5789091 L14.9381818,17.9134545 C15.5999383,18.2684913 16.3107059,18.5233873 17.0472727,18.6698182 L17.0618182,18.5825455 C17.12,18.3352727 17.1345455,18.088 17.1345455,17.8261818 L17.1345455,17.7825455 C17.12,17.4334545 17.0472727,17.0698182 16.9163636,16.7207273 L16.2181818,16.6334545 L15.1563636,16.5461818 L15.0109091,16.5170909 C14.8363636,16.488 14.3418182,16.3134545 14.1818182,16.1098182 C14.0072727,15.8916364 14.0363636,15.8770909 14.0072727,15.8334545 C13.871088,15.6467389 13.7254432,15.4671104 13.5709091,15.2952727 C13.28,14.9752727 12.64,14.7134545 12.5527273,14.568 C12.4509091,14.4225455 12.4072727,14.2770909 12.3490909,14.1898182 C12.3054545,14.1025455 12.2036364,14.0443636 12.0581818,14.0443636 L12,14.0443636 L12,14.0589091 Z M15.2145455,15.2370909 L15.0981818,15.3389091 C15.0690909,15.3970909 15.1709091,15.4843636 15.1709091,15.4843636 L15.2727273,15.5716364 C15.5781818,15.7752727 16.1309091,15.8043636 16.4072727,15.8043636 L15.9563636,15.2661818 L15.9418182,15.2661818 L15.3890909,15.1934545 C15.2872727,15.1934545 15.2145455,15.2370909 15.2145455,15.2370909 Z M13.6872727,18.8152727 C13.4545455,18.8298182 13.8327273,19.3534545 13.8327273,19.3534545 C14.0509091,19.4989091 14.8072727,19.6443636 14.9672727,19.6589091 C15.1272727,19.6734545 15.6654545,19.8043636 15.6654545,19.8043636 L15.8981818,19.8043636 L16.48,19.9498182 C16.6441626,19.6911649 16.7853101,19.4186043 16.9018182,19.1352727 C16.2618182,19.1643636 15.2290909,19.3243636 14.5018182,18.9898182 L14.2981818,18.9316364 C14.2981818,18.9316364 14.08,18.8152727 13.76,18.8152727 L13.6872727,18.8152727 Z"/>
      <path fill="url(#brandicon-rabobank-c)" d="M7.92727273,1.69527273 C7.92727273,1.73890909 8,2.55345455 8.10181818,2.68436364 C8.14545455,2.728 8.21818182,2.74254545 8.30545455,2.82981818 C8.33454545,2.85890909 8.34909091,2.96072727 8.33454545,3.00436364 C8.33454545,3.35345455 8.01454545,3.368 7.76727273,3.46981818 C7.18545455,3.71709091 7.04,4.24072727 7.04,4.82254545 C6.85090909,5.30254545 6.74909091,5.62254545 6.72,5.70981818 C6.28363636,6.14618182 6.09454545,7.16436364 5.70181818,7.74618182 C5.48363636,8.03709091 5.12,8.06618182 5.16363636,8.57527273 C5.17818182,8.83709091 5.20727273,9.04072727 5.46909091,9.17163636 C5.61454545,9.22981818 5.70181818,9.17163636 5.80363636,9.06981818 L5.84727273,8.98254545 C5.87636364,8.73527273 5.78909091,8.85163636 5.96363636,8.58981818 C6.15272727,8.328 6.03636364,8.25527273 6.16727273,8.08072727 C6.48727273,7.67345455 6.82181818,7.28072727 7.18545455,6.91709091 C7.41818182,6.66981818 7.53454545,6.26254545 7.63636364,5.94254545 C7.72363636,6.58254545 7.62181818,7.22254545 7.68,7.86254545 C7.72363636,8.26981818 8.13090909,8.99709091 8.29090909,9.40436364 C8.27636364,9.65163636 8.29090909,10.5534545 8.24727273,11.0334545 C8.24727273,11.3243636 8.21818182,11.688 8.34909091,11.9643636 C8.42181818,12.2552727 8.43636364,12.3716364 8.43636364,12.6916364 L8.48,14.4661818 C8.48,14.4661818 8.90181818,15.4116364 8.94545455,14.9898182 C8.97454545,14.6989091 9.06181818,14.3207273 9.14909091,14.0007273 C9.41090909,13.1425455 9.48363636,13.0407273 9.26545455,12.1243636 L9.41090909,11.2661818 C9.55636364,11.4989091 9.76,11.9643636 9.89090909,12.1825455 C10.0509091,12.4734545 10.4,12.6770909 10.6181818,12.9389091 C10.8218182,13.2152727 11.0254545,13.5934545 11.0109091,13.9425455 C10.8945455,14.1461818 11.8109091,13.4189091 11.7381818,13.2152727 C11.68,13.0698182 11.5636364,13.0698182 11.3890909,13.0116364 C11.1127273,12.9243636 10.9090909,12.2989091 10.8363636,12.0370909 C10.72,11.6152727 10.5018182,11.2952727 10.2545455,11.0189091 C10.0654545,10.2189091 10.0654545,9.70981818 9.94909091,9.01163636 L10.1381818,8.26981818 C10.3418182,7.25163636 9.74545455,6.96072727 9.74545455,6.37890909 C9.74545455,6.23345455 9.89090909,5.608 10.08,5.06981818 C10.1818182,5.38981818 10.3854545,5.928 10.56,6.11709091 C10.5745455,6.26254545 10.56,6.37890909 10.6327273,6.52436364 C10.8509091,7.07709091 11.1854545,7.58618182 11.3454545,8.168 C11.3745455,8.26981818 11.3163636,8.38618182 11.2727273,8.45890909 C11.1854545,8.648 11.2290909,8.99709091 11.2727273,9.18618182 L11.3454545,9.21527273 C11.3018182,9.46254545 11.3454545,9.608 11.4909091,9.608 C11.7818182,9.59345455 11.9418182,9.06981818 11.9272727,8.808 C11.9272727,8.25527273 11.8254545,8.03709091 11.7818182,7.78981818 C11.5781818,6.81527273 11.7818182,6.50981818 11.2290909,5.56436364 L10.9236364,4.83709091 C10.8654545,4.34254545 10.8072727,3.80436364 10.5018182,3.49890909 C10.24,3.208 10.1818182,3.29527273 9.87636364,3.19345455 C9.07636364,2.93163636 9.62909091,2.248 9.64363636,1.70981818 C9.65818182,1.05527273 9.28,0.822545455 8.8,0.793454545 L8.72727273,0.793454545 C8.34909091,0.793454545 8.05818182,1.02618182 7.91272727,1.68072727 L7.92727273,1.69527273 Z"/>
      <path fill="url(#brandicon-rabobank-d)" d="M8.14545455,1.85090909 C8.14545455,1.89454545 8.16,2.54909091 8.26181818,2.68 C8.45090909,2.82545455 8.55272727,2.78181818 8.55272727,3.13090909 C8.53818182,3.42181818 8.34909091,3.61090909 8.08727273,3.69818182 C7.68,3.84363636 7.46181818,3.93090909 7.31636364,4.35272727 C7.27272727,4.49818182 7.24363636,4.68727273 7.24363636,4.97818182 L7.24363636,4.99272727 L6.89454545,5.93818182 C6.38545455,6.46181818 6.26909091,7.62545455 5.73090909,8.12 C5.39636364,8.44 5.29454545,8.46909091 5.41090909,8.97818182 C5.42545455,9.02181818 5.52727273,9.09454545 5.55636364,9.12363636 C5.58545455,9.12363636 5.61454545,9.09454545 5.62909091,9.08 L5.64363636,9.08 C5.67272727,8.81818182 5.64363636,8.84727273 5.78909091,8.6 C5.93454545,8.38181818 5.86181818,8.28 5.99272727,8.09090909 C6.32727273,7.68363636 6.66181818,7.26181818 7.02545455,6.89818182 C7.27272727,6.63636364 7.59272727,5.80727273 7.66545455,5.51636364 C7.68,5.45818182 7.70909091,5.44363636 7.72363636,5.48727273 C7.76727273,6.04 7.86909091,6.50545455 7.85454545,7.05818182 C7.81090909,8.22181818 7.86909091,8.16363636 8.29090909,9.19636364 C8.36363636,8.76 8.48,8.13454545 8.69818182,7.90181818 C8.40727273,9.03636364 8.39272727,10.6509091 8.36363636,11.1454545 C8.33454545,11.3927273 8.27636364,11.8 8.39272727,12.0181818 C8.43636364,12.1781818 8.43636364,12.4254545 8.43636364,12.6 L8.43636364,14.5636364 L8.27636364,15.4363636 C8.16027776,15.7638709 7.94073107,16.0446864 7.65090909,16.2363636 C7.57818182,16.28 7.38909091,16.3818182 7.38909091,16.4690909 C7.38909091,16.6145455 8.27636364,16.8618182 8.48,16.5418182 C8.62545455,16.3090909 8.75636364,16.1781818 8.93090909,16.0036364 C9.22181818,15.7418182 8.90181818,15.4654545 8.93090909,15.1018182 C9.00363636,14.4763636 9.28,13.9381818 9.36727273,13.3272727 C9.42545455,12.9781818 9.36727273,12.6436364 9.20727273,12.2363636 L9.35272727,11.1163636 C9.49818182,11.3054545 9.61454545,11.6254545 9.74545455,11.8872727 C9.96363636,12.3381818 9.96363636,12.3818182 10.3563636,12.76 C10.4727273,12.8909091 10.6181818,13.0509091 10.7054545,13.1963636 C10.8945455,13.4872727 11.0109091,13.7636364 10.9963636,14.0981818 C10.8509091,14.3454545 10.8072727,14.3309091 10.6327273,14.4763636 C10.6327273,14.4763636 10.5890909,14.6218182 10.7490909,14.6218182 C11.3309091,14.6218182 11.2581818,14.3163636 11.4763636,13.9236364 C11.6218182,13.6763636 12.0145455,13.2981818 11.5781818,13.1527273 C11.4327273,13.1090909 11.2581818,13.0654545 11.1854545,12.9345455 C10.8654545,12.4109091 10.8654545,12.3963636 10.7054545,11.9163636 C10.6036364,11.64 10.4581818,11.4072727 10.2254545,11.2181818 C10.08,10.8981818 10.0218182,10.6654545 9.97818182,10.3309091 C9.92,9.86545455 9.84727273,9.53090909 9.77454545,9.05090909 C9.99272727,8.16363636 10.1381818,7.97454545 9.74545455,7.11636364 C9.643201,6.91756673 9.58374139,6.69954815 9.57090909,6.47636364 C9.57090909,6.04 9.77454545,5.37090909 9.92,5.03636364 C9.97818182,4.90545455 10.0945455,4.86181818 10.1672727,4.89090909 C10.1818182,5.21090909 10.5745455,5.98181818 10.7490909,6.15636364 C10.7636364,6.30181818 10.7490909,6.43272727 10.8072727,6.56363636 C11.0545455,7.13090909 11.3309091,7.64 11.4909091,8.22181818 C11.5490909,8.42545455 11.4909091,8.51272727 11.4181818,8.68727273 C11.3913273,8.84614591 11.3913273,9.00839954 11.4181818,9.16727273 L11.52,9.21090909 C11.4909091,9.32727273 11.4618182,9.54545455 11.52,9.54545455 C11.6654545,9.54545455 11.7818182,9.10909091 11.7672727,8.92 C11.7527273,8.33818182 11.6509091,8.09090909 11.6218182,7.91636364 C11.4181818,6.95636364 11.5781818,6.69454545 11.04,5.76363636 L10.72,5.00727273 C10.6909091,4.61454545 10.6036364,3.72727273 10.1090909,3.56727273 L9.81818182,3.49454545 C9.16363636,3.29090909 9.16363636,2.78181818 9.35272727,2.24363636 C9.49818182,1.74909091 9.52727273,1.18181818 8.81454545,1.12363636 L8.75636364,1.12363636 C8.36363636,1.12363636 8.23272727,1.45818182 8.14545455,1.83636364 L8.14545455,1.85090909 Z"/>
    </g>
  </g>
</svg>
