<svg xmlns="http://www.w3.org/2000/svg" viewBox="0 0 32 32"><g fill="none" fill-rule="evenodd"><path fill="#C9031A" d="M0 0h32v32H0z"/><path fill="#FFF" fill-rule="nonzero" d="M10.1 22.8c0 1.58-1 2.48-2.67 2.48H4.67a.3.3 0 0 1-.3-.3v-8.24c0-.14.15-.27.3-.27H7.3c1.53 0 2.43.87 2.43 2.16 0 .98-.46 1.65-1.57 1.97 1.3.14 1.95 1.07 1.95 2.2zm-1.15-.2c0-.9-.66-1.54-1.74-1.54h-1.4v3.09h1.67c.91 0 1.45-.59 1.45-1.55h.02zm-.32-3.85c0-.83-.47-1.3-1.42-1.3h-1.4v2.62h1.3c1 0 1.52-.48 1.52-1.3v-.02zM15.2 25c.05.16-.07.27-.23.27h-.6c-.17 0-.3-.08-.33-.27l-.1-.58c-.4.66-1.06.92-1.79.92-1.06 0-1.73-.7-1.73-1.9 0-1.39.99-1.94 2.06-2l1.39-.09v-.32c0-.77-.22-1.12-1.15-1.12-.57 0-.98.15-1.27.22a.264.264 0 0 1-.36-.19l-.1-.5c-.05-.17.03-.3.19-.33.29-.07.93-.24 1.6-.24 1.83 0 2.26.98 2.26 2.32v2.33c0 .33 0 .68.08 1.06l.08.4V25zm-1.33-1.81v-1.02l-.83.04c-.8.04-1.4.28-1.4 1.25 0 .63.35.93.83.93.83 0 1.4-.72 1.4-1.2zm6.48 1.8a.3.3 0 0 1-.29.29h-.87a.3.3 0 0 1-.3-.3v-4.22c0-.63-.2-.88-.75-.88-.8 0-1.3.66-1.3 1.55v3.56a.3.3 0 0 1-.28.29h-.61a.3.3 0 0 1-.3-.3v-5.8c0-.15.15-.27.3-.27h.39c.19 0 .29.07.32.23l.14.61c.56-.62.98-.88 1.66-.88 1 0 1.9.65 1.9 1.64v4.48zm5.36-.04c.08.14.03.32-.15.32h-.89c-.16 0-.27-.1-.36-.25l-1.96-3.17v3.14a.3.3 0 0 1-.3.29h-.6c-.15 0-.3-.13-.3-.3V16.3c0-.17.15-.28.3-.28h.6c.15 0 .3.1.3.28v5.31l1.6-2.46c.08-.11.2-.22.39-.22h.81c.2 0 .27.2.15.34l-1.78 2.41 2.19 3.29v-.01zM10.27 14.18c.07.22.01.37-.22.37h-.87c-.15 0-.25-.03-.3-.2-.28-.88-.6-1.94-1-2.63-.29-.53-.6-1.07-1.42-1.07h-.64v3.63c0 .13-.13.27-.3.27h-.85c-.15 0-.3-.12-.3-.28V6.1c0-.16.15-.3.3-.3h2.36c1.99 0 2.66.98 2.66 2.19 0 1.35-.82 2.07-1.98 2.18.71.13 1.2.74 1.48 1.35.15.34.63 1.44 1.08 2.68v-.03zm-1.69-6c0-.8-.5-1.27-1.45-1.27H5.82V9.6h1.16c1 0 1.6-.54 1.6-1.45v.02zm6.33 3.31a.3.3 0 0 1-.3.3h-3.26c.04 1.18.43 1.87 1.6 1.87.6 0 1.06-.2 1.28-.25.18-.07.29.03.33.18l.16.43c.06.15-.03.3-.19.35-.16.09-.67.32-1.64.32-1.8 0-2.81-1.12-2.81-3.27 0-1.97.95-3.2 2.47-3.2 1.34 0 2.36.83 2.36 3.27zm-1.22-.61c-.03-.84-.3-1.72-1.12-1.72-.54 0-1.1.34-1.22 1.72h2.34zm6.62-1.93c0 .16-.08.26-.25.27l-.73.05c.3.37.5.78.5 1.26 0 1.43-.92 2.3-2.39 2.3-.23 0-.47-.03-.67-.07a.51.51 0 0 0-.23.4c0 .3.16.35.64.35h1.13c1.22 0 1.98.56 1.98 1.7 0 1.53-1.25 2.07-2.63 2.07-1.3 0-2.62-.4-2.62-1.82 0-.17.15-.29.3-.29l.66.02c.15 0 .26.11.3.29.1.68.8.8 1.4.8.79 0 1.46-.3 1.46-.92 0-.54-.3-.83-1.02-.83h-1.27c-.77 0-1.45-.28-1.45-1.03 0-.48.26-.8.58-1.1a2.13 2.13 0 0 1-.95-1.87c0-1.47 1-2.31 2.39-2.31.33 0 .61.07.89.07h1.7c.19 0 .29.13.29.3v.36h-.01zm-1.7 1.52c0-1.1-.49-1.38-1.16-1.38-.65 0-1.16.28-1.16 1.38 0 1.15.51 1.43 1.16 1.43.66 0 1.17-.32 1.17-1.43zm3.2 3.8a.3.3 0 0 1-.28.29h-.58c-.18 0-.32-.13-.32-.3v-5.7c0-.15.14-.28.3-.28h.6c.16 0 .29.13.29.29v5.7zm.24-8.2c0 .43-.38.82-.83.82a.83.83 0 0 1 0-1.64c.45 0 .83.36.83.82zm5.4 5.38c0 2.03-.98 3.23-2.58 3.23s-2.57-1.21-2.57-3.25c0-2 .99-3.23 2.57-3.23 1.6 0 2.58 1.23 2.58 3.23v.02zm-1.22 0c0-1.56-.53-2.24-1.36-2.24-.81 0-1.34.68-1.34 2.22 0 1.6.53 2.26 1.34 2.26.83 0 1.36-.67 1.36-2.26v.02z"/></g></svg>