<svg width="28" height="18" viewBox="0 0 24 16" xmlns="http://www.w3.org/2000/svg">
  <g fill-rule="nonzero" fill="none">
    <rect
      stroke-opacity=".2"
      stroke="#000"
      stroke-width=".5"
      fill="#FFF"
      x=".3"
      y=".3"
      width="23.5"
      height="15.5"
      rx="2"
    />
    <path
      d="M2.8 6c-.5-.4-1.1-.6-1.8-.8h2.8c.3 0 .6 0 .7.4l.6 2.9.2.8L7 5.1h1.8L6 11.3H4.3L2.8 5.9Zm7.3 5.3H8.4l1-6.2h1.8L10 11.3Zm6.2-6L16 6.6H16a3 3 0 0 0-1.3-.3c-.7 0-1 .3-1 .5 0 .3.4.5 1 .8 1 .4 1.4 1 1.4 1.7 0 1.2-1.2 2-3 2-.7 0-1.4 0-1.8-.3l.2-1.3h.2c.6.3 1 .4 1.6.4.5 0 1-.2 1-.6 0-.3-.2-.5-.8-.8-.7-.3-1.5-.8-1.5-1.7 0-1.2 1.2-2 2.8-2 .7 0 1.2.1 1.6.3ZM18.5 9H20l-.4-1.8v-.5l-.3.6-.7 1.7Zm2.1-4 1.4 6.2h-1.6l-.2-1H18l-.3 1h-1.8l2.5-5.7c.2-.4.5-.5 1-.5h1.2Z"
      fill="#1434CB"
    />
  </g>
</svg>