<svg xmlns="http://www.w3.org/2000/svg" xmlns:xlink="http://www.w3.org/1999/xlink" id="svg" version="1.1" width="400" height="400" viewBox="0, 0, 400,400"><g id="svgg"><path id="path0" d="M187.800 0.803 C 184.280 0.991,180.230 1.331,178.800 1.556 C 177.370 1.782,175.030 2.078,173.600 2.213 C 172.170 2.349,169.650 2.707,168.000 3.009 C 158.950 4.666,155.680 5.307,154.600 5.637 C 153.940 5.839,151.600 6.449,149.400 6.993 C 145.041 8.071,142.684 8.739,139.000 9.940 C 135.126 11.202,128.299 13.634,127.000 14.214 C 125.930 14.692,122.770 15.991,119.422 17.329 C 78.603 33.644,33.644 78.603,17.329 119.422 C 15.991 122.770,14.692 125.930,14.214 127.000 C 13.634 128.299,11.202 135.126,9.940 139.000 C 8.739 142.684,8.071 145.041,6.993 149.400 C 6.449 151.600,5.839 153.940,5.637 154.600 C 5.295 155.719,4.493 159.829,3.021 168.000 C 2.394 171.484,1.921 175.260,1.146 183.000 C 0.576 188.689,0.576 211.309,1.146 217.000 C 3.408 239.590,7.975 258.364,15.595 276.400 C 16.293 278.050,17.074 279.928,17.331 280.574 C 19.256 285.397,27.174 300.109,32.000 307.828 C 41.140 322.448,55.040 338.323,70.819 352.162 C 82.945 362.798,105.523 376.933,119.800 382.826 C 120.240 383.008,121.410 383.504,122.400 383.929 C 127.908 386.294,138.319 390.031,143.345 391.448 C 149.830 393.276,153.534 394.228,156.400 394.803 C 157.390 395.002,159.550 395.436,161.200 395.769 C 179.057 399.365,209.540 400.786,220.900 398.553 L 222.000 398.336 222.000 358.395 C 222.000 320.701,222.039 318.442,222.700 318.248 C 223.085 318.135,224.120 317.919,225.000 317.769 C 227.975 317.259,236.611 314.975,237.613 314.433 C 237.950 314.251,238.817 313.972,239.540 313.813 C 240.263 313.654,241.337 313.273,241.927 312.965 C 242.517 312.657,243.227 312.404,243.505 312.402 C 243.783 312.401,244.323 312.225,244.705 312.010 C 245.087 311.796,246.555 311.150,247.968 310.577 C 264.115 304.013,280.505 292.113,292.835 278.000 C 297.557 272.595,300.443 268.632,305.651 260.400 C 311.750 250.758,317.977 234.732,320.570 222.000 C 323.633 206.965,323.723 186.821,320.787 173.600 C 320.128 170.632,318.481 163.947,317.845 161.657 C 315.300 152.496,301.937 146.002,291.800 149.000 C 280.554 152.327,272.961 164.112,275.624 174.110 C 286.322 214.271,268.284 253.818,232.188 269.343 C 230.214 270.192,228.240 271.041,227.800 271.231 C 225.496 272.226,218.246 274.293,215.200 274.824 C 209.067 275.893,206.457 276.054,198.000 275.882 C 189.080 275.701,186.391 275.377,180.200 273.737 C 177.412 272.999,173.353 271.728,172.200 271.233 C 171.760 271.044,170.230 270.400,168.800 269.801 C 146.905 260.638,131.473 242.748,123.599 217.400 C 120.292 206.756,120.495 187.627,124.039 175.800 C 128.783 159.974,112.701 144.375,96.462 149.051 C 89.501 151.055,83.587 156.366,82.040 162.000 C 75.756 184.885,75.414 205.581,80.946 228.200 C 81.985 232.449,82.308 233.480,84.826 240.600 C 91.434 259.283,105.487 279.200,120.400 291.019 C 122.050 292.327,123.490 293.496,123.600 293.617 C 124.262 294.347,133.855 300.898,136.200 302.223 C 136.640 302.471,137.720 303.089,138.600 303.596 C 143.159 306.223,156.286 312.400,157.309 312.400 C 157.512 312.400,158.246 312.656,158.940 312.969 C 159.633 313.282,161.460 313.928,163.000 314.405 C 164.540 314.883,166.180 315.421,166.644 315.602 C 167.344 315.876,173.713 317.468,177.104 318.217 L 178.008 318.417 177.904 336.909 L 177.800 355.400 176.400 355.347 C 174.060 355.259,164.123 353.353,161.000 352.395 C 160.340 352.192,158.720 351.729,157.400 351.365 C 153.490 350.288,149.886 349.144,148.540 348.553 C 147.846 348.249,147.087 348.000,146.853 348.000 C 146.619 348.000,145.836 347.745,145.114 347.434 C 144.391 347.123,142.810 346.483,141.600 346.013 C 134.862 343.393,121.456 336.627,117.000 333.597 C 116.120 332.999,113.960 331.557,112.200 330.393 C 80.659 309.539,56.694 275.417,47.451 238.200 C 45.684 231.086,45.153 228.089,43.588 216.400 C 42.895 211.224,42.638 194.573,43.163 188.800 C 43.845 181.287,45.210 171.312,45.982 168.200 C 46.200 167.320,46.847 164.620,47.420 162.200 C 48.543 157.452,48.984 155.938,51.034 149.800 C 64.370 109.860,93.537 76.900,132.000 58.306 C 138.167 55.325,140.203 54.400,140.600 54.400 C 140.754 54.400,141.446 54.155,142.140 53.856 C 144.716 52.744,145.748 52.361,149.727 51.038 C 163.224 46.550,173.223 44.543,189.000 43.157 C 194.989 42.631,211.222 42.884,216.400 43.584 C 226.393 44.934,228.827 45.323,233.000 46.235 C 239.642 47.687,250.447 50.852,255.273 52.759 C 255.783 52.960,257.190 53.517,258.400 53.995 C 259.610 54.474,261.140 55.075,261.800 55.333 C 264.146 56.246,277.447 63.056,280.319 64.814 C 281.924 65.796,283.549 66.780,283.930 67.000 C 299.174 75.808,319.236 95.324,330.393 112.200 C 331.557 113.960,332.999 116.120,333.597 117.000 C 336.627 121.456,343.393 134.862,346.013 141.600 C 346.483 142.810,347.123 144.391,347.434 145.114 C 347.745 145.836,348.000 146.619,348.000 146.853 C 348.000 147.087,348.254 147.846,348.565 148.540 C 348.876 149.233,349.519 151.150,349.995 152.800 C 350.470 154.450,351.014 156.250,351.203 156.800 C 352.751 161.300,354.688 170.536,355.608 177.800 C 355.831 179.560,356.201 182.080,356.430 183.400 C 357.070 187.090,357.351 205.882,356.848 211.400 C 355.628 224.794,353.967 234.167,351.177 243.400 C 349.482 249.010,349.080 250.302,348.813 251.000 C 348.645 251.440,348.106 252.880,347.617 254.200 C 346.529 257.132,345.280 260.324,344.800 261.400 C 344.604 261.840,344.054 263.100,343.579 264.200 C 338.509 275.921,329.151 290.922,320.872 300.600 C 306.927 316.902,293.883 327.584,274.600 338.492 C 273.169 339.302,266.252 342.682,264.200 343.574 C 263.100 344.052,261.840 344.604,261.400 344.800 C 260.324 345.280,257.132 346.529,254.200 347.617 C 252.880 348.106,251.440 348.649,251.000 348.822 C 250.560 348.994,248.760 349.582,247.000 350.126 L 243.800 351.116 243.697 373.005 L 243.593 394.895 244.497 394.670 C 249.621 393.399,252.894 392.540,256.200 391.601 C 261.249 390.165,272.308 386.201,277.600 383.929 C 278.590 383.504,279.760 383.008,280.200 382.826 C 283.975 381.268,296.510 374.802,301.121 372.034 C 304.268 370.145,307.148 368.420,307.521 368.200 C 311.568 365.816,324.922 355.960,329.180 352.214 C 336.754 345.552,344.058 338.401,348.806 333.000 C 349.966 331.680,351.482 329.970,352.174 329.200 C 362.065 318.197,377.441 293.657,382.757 280.390 C 383.063 279.625,383.626 278.280,384.008 277.400 C 386.247 272.238,390.110 261.360,391.750 255.600 C 393.415 249.750,394.218 246.572,394.832 243.400 C 395.044 242.300,395.468 240.230,395.774 238.800 C 396.957 233.265,397.969 226.224,398.878 217.200 C 399.473 211.300,399.470 188.792,398.874 182.800 C 397.945 173.465,397.030 167.450,395.010 157.400 C 394.239 153.566,393.436 150.398,391.448 143.345 C 390.031 138.319,386.294 127.908,383.929 122.400 C 383.504 121.410,383.008 120.240,382.826 119.800 C 376.933 105.523,362.814 82.969,352.162 70.817 C 339.514 56.387,326.178 44.399,312.294 34.979 C 303.382 28.932,288.547 20.704,280.200 17.178 C 276.180 15.480,271.442 13.581,269.800 13.011 C 268.700 12.628,267.440 12.157,267.000 11.964 C 265.574 11.338,256.272 8.433,251.200 7.030 C 244.849 5.274,231.958 2.806,224.800 1.976 C 213.901 0.712,198.564 0.226,187.800 0.803 M188.000 79.422 C 184.810 79.708,181.570 80.060,180.800 80.204 C 174.385 81.403,169.616 82.440,167.000 83.202 C 164.559 83.913,157.103 86.401,156.200 86.806 C 155.760 87.003,154.230 87.641,152.800 88.225 C 149.474 89.582,140.752 93.921,140.108 94.541 C 139.721 94.912,140.224 96.043,142.449 99.807 C 144.007 102.443,145.387 104.870,145.514 105.200 C 145.642 105.530,146.048 106.250,146.417 106.800 C 147.230 108.011,154.590 120.705,155.886 123.132 C 156.675 124.608,161.149 132.367,161.415 132.719 C 161.464 132.784,162.921 132.129,164.652 131.262 C 167.528 129.823,169.777 128.849,173.600 127.387 C 179.623 125.085,189.266 123.280,197.355 122.939 C 206.557 122.551,218.373 124.365,226.400 127.396 C 229.701 128.642,234.745 130.826,236.551 131.790 C 237.624 132.363,238.541 132.779,238.588 132.716 C 238.801 132.432,243.216 124.802,244.210 123.000 C 244.817 121.900,247.101 117.957,249.284 114.239 C 251.467 110.520,253.857 106.380,254.594 105.039 C 255.331 103.697,256.934 100.891,258.156 98.803 C 259.898 95.824,260.271 94.902,259.888 94.525 C 257.955 92.625,244.227 86.697,236.600 84.469 C 228.613 82.135,228.557 82.122,219.200 80.389 C 211.341 78.934,198.056 78.522,188.000 79.422 M194.000 155.612 C 173.945 158.048,157.627 174.902,155.557 195.320 C 155.035 200.471,155.536 208.025,156.597 211.005 C 156.909 211.882,157.173 212.883,157.182 213.230 C 157.309 217.763,166.578 231.216,172.400 235.315 C 192.201 249.256,215.481 247.815,231.648 231.648 C 261.814 201.482,236.545 150.446,194.000 155.612 " stroke="none" fill="#05a3ea" fill-rule="evenodd"/></g></svg>